<svg width="16" height="17" viewBox="0 0 16 17" fill="none" xmlns="http://www.w3.org/2000/svg">
<path d="M13.2808 6.92713L13.8988 6.30913C14.3904 5.81751 14.6666 5.15072 14.6666 4.45546C14.6666 3.76021 14.3904 3.09342 13.8988 2.6018C13.4071 2.11018 12.7404 1.83398 12.0451 1.83398C11.3498 1.83398 10.6831 2.11018 10.1914 2.6018L9.57343 3.2198L3.89209 8.8998C3.50743 9.28513 3.31476 9.4778 3.14943 9.6898C2.95417 9.93998 2.78673 10.2107 2.65009 10.4971C2.53476 10.7398 2.44876 10.9985 2.27676 11.5145L1.54743 13.7018M13.2808 6.92713C13.2808 6.92713 11.9681 6.8498 10.8094 5.69113C9.65076 4.53313 9.57409 3.2198 9.57409 3.2198M13.2808 6.92713L7.60009 12.6071C7.21543 12.9918 7.02276 13.1845 6.81076 13.3498C6.56058 13.5451 6.28987 13.7125 6.00343 13.8491C5.76076 13.9645 5.50276 14.0505 4.98609 14.2225L2.79876 14.9518M2.79876 14.9518L2.26409 15.1305C2.13946 15.1723 2.00565 15.1785 1.87769 15.1484C1.74972 15.1183 1.63269 15.0531 1.53974 14.9602C1.44679 14.8672 1.38161 14.7502 1.35152 14.6222C1.32144 14.4942 1.32764 14.3604 1.36943 14.2358L1.54809 13.7011L2.79876 14.9518Z" stroke="#4D5761"/>
</svg>
