<?xml version="1.0" encoding="UTF-8"?>
<svg xmlns="http://www.w3.org/2000/svg" xmlns:xlink="http://www.w3.org/1999/xlink" version="1.1" id="Capa_1" x="0px" y="0px" viewBox="0 0 512 512" style="enable-background:new 0 0 512 512;" xml:space="preserve" width="512" height="512">
<g>
	<g>
		<path style="fill:none;stroke:#000000;stroke-width:20;stroke-linecap:round;stroke-linejoin:round;stroke-miterlimit:10;" d="&#10;&#9;&#9;&#9;M253.284,111.875l8.981,19.432l21.256,2.537c9.294,1.109,13.025,12.594,6.158,18.954l-15.706,14.546l4.156,21&#10;&#9;&#9;&#9;c1.817,9.181-7.953,16.28-16.123,11.714l-18.688-10.442l-18.688,10.442c-8.171,4.565-17.94-2.533-16.123-11.714l4.156-21&#10;&#9;&#9;&#9;l-15.706-14.546c-6.867-6.36-3.135-17.845,6.158-18.954l21.256-2.537l8.981-19.432&#10;&#9;&#9;&#9;C237.281,103.379,249.357,103.379,253.284,111.875z"/>
		<g>
			<path style="fill:none;stroke:#000000;stroke-width:20;stroke-linecap:round;stroke-linejoin:round;stroke-miterlimit:10;" d="&#10;&#9;&#9;&#9;&#9;M395.17,111.875l8.981,19.432l21.256,2.537c9.294,1.109,13.025,12.594,6.158,18.954l-15.706,14.546l4.156,21&#10;&#9;&#9;&#9;&#9;c1.817,9.181-7.953,16.28-16.123,11.714l-18.688-10.442l-18.688,10.442c-8.171,4.565-17.94-2.533-16.123-11.714l4.156-21&#10;&#9;&#9;&#9;&#9;l-15.706-14.546c-6.867-6.36-3.135-17.845,6.158-18.954l21.256-2.537l8.981-19.432&#10;&#9;&#9;&#9;&#9;C379.168,103.379,391.244,103.379,395.17,111.875z"/>
			<path style="fill:none;stroke:#000000;stroke-width:20;stroke-linecap:round;stroke-linejoin:round;stroke-miterlimit:10;" d="&#10;&#9;&#9;&#9;&#9;M111.397,111.875l8.981,19.432l21.256,2.537c9.294,1.109,13.025,12.594,6.158,18.954l-15.706,14.546l4.156,21&#10;&#9;&#9;&#9;&#9;c1.817,9.181-7.953,16.28-16.123,11.714l-18.688-10.442l-18.688,10.442c-8.171,4.565-17.94-2.533-16.123-11.714l4.156-21&#10;&#9;&#9;&#9;&#9;l-15.706-14.546c-6.867-6.36-3.135-17.845,6.158-18.954l21.256-2.537l8.981-19.432&#10;&#9;&#9;&#9;&#9;C95.395,103.379,107.47,103.379,111.397,111.875z"/>
		</g>
		<path style="fill:none;stroke:#000000;stroke-width:20;stroke-linecap:round;stroke-linejoin:round;stroke-miterlimit:10;" d="&#10;&#9;&#9;&#9;M476.638,243.325V66.237c0-19.212-15.575-34.787-34.787-34.787H44.787C25.575,31.45,10,47.024,10,66.237v174.511&#10;&#9;&#9;&#9;c0,19.212,15.575,34.787,34.787,34.787h25.064v33.14l56.653-33.14h73.56"/>
		<g>
			<path style="fill:none;stroke:#000000;stroke-width:20;stroke-linecap:round;stroke-linejoin:round;stroke-miterlimit:10;" d="&#10;&#9;&#9;&#9;&#9;M467.213,243.325H238.106c-19.212,0-34.787,15.575-34.787,34.787v134.511c0,19.212,15.575,34.787,34.787,34.787h25.064v33.14&#10;&#9;&#9;&#9;&#9;l56.653-33.14h147.389c19.212,0,34.787-15.575,34.787-34.787V278.112C502,258.9,486.425,243.325,467.213,243.325z"/>
		</g>
	</g>
	<g>
		
			<line style="fill:none;stroke:#000000;stroke-width:20;stroke-linecap:round;stroke-linejoin:round;stroke-miterlimit:10;" x1="289.13" y1="321.293" x2="416.189" y2="321.293"/>
		
			<line style="fill:none;stroke:#000000;stroke-width:20;stroke-linecap:round;stroke-linejoin:round;stroke-miterlimit:10;" x1="289.13" y1="372.357" x2="416.189" y2="372.357"/>
	</g>
</g>















</svg>
