<svg width="410" height="436" viewBox="0 0 410 436" fill="none" xmlns="http://www.w3.org/2000/svg">
<path d="M186.523 410.824C266.388 432.391 275.321 375.145 269.804 343.825C251.297 304.587 200.937 220.45 147.551 197.815C94.1653 175.18 77.972 216.144 76.5484 239.456C61.3336 242.125 32.5052 266.415 42.6485 302.451C50.7629 331.28 74.5017 342.045 85.3572 343.825C81.1753 359.662 78.4171 395.235 100.839 410.824C135.272 439.385 173.354 420.789 186.523 410.824Z" fill="white"/>
<path d="M145.334 306.159C151.101 263.696 119.05 248.129 102.303 245.654C149.988 237.708 166.441 275.827 194.824 317.204C217.531 350.307 222.26 370.524 221.786 376.495C213.573 359.02 194.482 359.311 185.963 361.641C191.205 317.256 161.061 306.159 145.334 306.159Z" fill="#D1D3D4"/>
<path d="M186.523 410.824C266.388 432.391 275.321 375.145 269.804 343.825C251.297 304.587 200.937 220.45 147.551 197.815C94.1653 175.18 77.972 216.144 76.5484 239.456C61.3336 242.125 32.5052 266.415 42.6485 302.451C50.7629 331.28 74.5017 342.045 85.3572 343.825C81.1753 359.662 78.4171 395.235 100.839 410.824C135.272 439.385 173.354 420.789 186.523 410.824Z" stroke="black" stroke-linecap="round" stroke-linejoin="round"/>
<path d="M255.178 433.369C255.039 433.454 254.994 433.635 255.078 433.774C255.162 433.914 255.343 433.958 255.483 433.875L255.178 433.369ZM409.997 349.962C409.995 349.799 409.862 349.668 409.699 349.67C409.537 349.671 409.406 349.804 409.407 349.967L409.997 349.962ZM255.483 433.875C258.006 432.353 262.492 430.336 267.716 429.252C272.941 428.168 278.878 428.022 284.326 430.21L284.545 429.663C278.953 427.417 272.889 427.577 267.596 428.675C262.304 429.773 257.756 431.816 255.178 433.369L255.483 433.875ZM317.838 418.042C319.129 405.583 315.559 397.137 310.989 392.288C308.707 389.866 306.174 388.341 303.876 387.668C301.59 386.998 299.486 387.163 298.122 388.207L298.48 388.675C299.635 387.791 301.517 387.591 303.711 388.233C305.895 388.873 308.34 390.336 310.56 392.692C314.995 397.398 318.528 405.666 317.252 417.981L317.838 418.042ZM298.122 388.207C296.755 389.253 296.048 391.332 296.026 393.862C296.004 396.409 296.672 399.48 298.136 402.603C301.066 408.855 307.202 415.345 317.464 418.295L317.626 417.728C307.537 414.828 301.532 408.459 298.669 402.353C297.237 399.297 296.594 396.313 296.616 393.868C296.637 391.407 297.328 389.557 298.48 388.675L298.122 388.207ZM284.326 430.21C287.764 431.592 291.403 433.09 294.961 434.171C298.518 435.252 302.022 435.926 305.19 435.641C308.37 435.354 311.212 434.101 313.419 431.341C315.617 428.592 317.163 424.373 317.822 418.197L317.235 418.135C316.583 424.253 315.059 428.346 312.959 430.973C310.867 433.589 308.181 434.78 305.137 435.054C302.081 435.329 298.663 434.68 295.133 433.608C291.605 432.535 287.993 431.049 284.545 429.663L284.326 430.21ZM317.822 418.197C317.827 418.145 317.833 418.094 317.838 418.042L317.252 417.981C317.247 418.033 317.241 418.083 317.235 418.135L317.822 418.197ZM317.45 418.45C322.645 419.888 330.973 420.575 339.104 417.964C347.251 415.349 355.19 409.427 359.57 397.676L359.017 397.471C354.706 409.039 346.913 414.839 338.925 417.403C330.922 419.972 322.714 419.295 317.607 417.882L317.45 418.45ZM359.57 397.676C365.028 383.032 363.011 372.077 358.499 365.192C356.246 361.754 353.371 359.335 350.506 357.987C347.645 356.641 344.766 356.352 342.524 357.224L342.738 357.774C344.783 356.977 347.489 357.22 350.255 358.521C353.015 359.819 355.808 362.162 358.006 365.515C362.396 372.215 364.423 382.966 359.017 397.471L359.57 397.676ZM342.524 357.224C340.251 358.109 338.67 360.496 337.934 363.648C337.194 366.809 337.286 370.796 338.406 374.989C340.647 383.381 347.016 392.64 359.178 397.844L359.409 397.303C347.424 392.173 341.173 383.064 338.976 374.837C337.876 370.72 337.794 366.833 338.508 363.782C339.223 360.722 340.723 358.557 342.738 357.774L342.524 357.224ZM359.121 397.812C362.131 399.992 366.849 401.171 372.199 400.961C377.556 400.751 383.577 399.145 389.213 395.72C400.499 388.859 410.201 374.723 409.997 349.962L409.407 349.967C409.61 374.555 399.987 388.48 388.906 395.216C383.359 398.588 377.437 400.165 372.176 400.372C366.908 400.579 362.336 399.412 359.467 397.334L359.121 397.812Z" fill="black"/>
<path d="M0.210487 188.376C0.0542715 188.422 -0.0341514 188.587 0.0124185 188.742C0.0583988 188.899 0.222863 188.988 0.379079 188.941L0.210487 188.376ZM134.168 112.373C134.28 112.255 134.275 112.068 134.156 111.956C134.039 111.844 133.852 111.849 133.74 111.968L134.168 112.373ZM0.379079 188.941C9.60992 186.19 32.715 174.945 51.5345 151.923L51.0783 151.55C32.3389 174.473 9.33758 185.656 0.210487 188.376L0.379079 188.941ZM51.5345 151.923C63.302 137.528 68.8408 122.275 68.9664 111.488C69.0289 106.1 67.7402 101.772 65.1347 99.247C62.5085 96.7004 58.6185 96.0555 53.6579 97.8752L53.8607 98.4288C58.6815 96.6603 62.3093 97.3288 64.7244 99.6702C67.1614 102.032 68.4382 106.165 68.3769 111.481C68.2537 122.101 62.785 137.229 51.0783 151.55L51.5345 151.923ZM53.6579 97.8752C43.7538 101.509 36.4748 112.021 34.9905 123.11C33.5032 134.223 37.8306 145.961 51.185 152.005L51.4278 151.468C38.3447 145.547 34.1168 134.082 35.5747 123.188C37.036 112.271 44.2019 101.973 53.8607 98.4288L53.6579 97.8752ZM51.2433 152.024C59.9619 153.932 81.8497 152.171 100.103 130.1L99.6488 129.724C81.5414 151.619 59.8806 153.31 51.3695 151.448L51.2433 152.024ZM100.103 130.1C105.795 123.217 109.513 117.426 111.743 112.654C113.972 107.885 114.724 104.114 114.458 101.282C114.19 98.4382 112.893 96.5353 111.043 95.558C109.205 94.5865 106.872 94.5558 104.568 95.344L104.759 95.9016C106.952 95.1512 109.109 95.2031 110.768 96.0791C112.414 96.9492 113.619 98.6587 113.871 101.337C114.124 104.026 113.413 107.687 111.209 112.404C109.006 117.119 105.32 122.867 99.6488 129.724L100.103 130.1ZM104.568 95.344C102.256 96.1351 99.8186 97.9348 97.7094 100.362C95.5978 102.793 93.7999 105.871 92.7777 109.242C90.7287 115.999 91.8021 123.934 99.6936 130.144L100.059 129.681C92.3828 123.641 91.3535 115.97 93.3413 109.413C94.3381 106.128 96.093 103.122 98.1545 100.749C100.219 98.3734 102.574 96.6491 104.759 95.9016L104.568 95.344ZM99.7255 130.165C101.68 131.329 105.702 131.728 111.499 129.435C117.307 127.137 124.94 122.122 134.168 112.373L133.74 111.968C124.55 121.677 116.986 126.63 111.282 128.887C105.565 131.148 101.757 130.689 100.027 129.659L99.7255 130.165Z" fill="black"/>
<path d="M91.8735 18.746C99.1112 18.6281 102.465 11.0054 103.238 7.20909C103.197 16.1251 108.169 20.7332 110.661 21.9222C103.248 22.9697 99.5056 31.0517 98.5613 34.9618C99.7809 26.5055 94.6111 20.6283 91.8735 18.746Z" fill="#EC90A2" stroke="black" stroke-linecap="round" stroke-linejoin="round"/>
<path d="M377.952 12.5375C385.19 12.4196 388.544 4.79691 389.317 1C389.275 9.91665 394.248 14.5247 396.74 15.7137C389.326 16.7612 385.584 24.8432 384.64 28.7533C385.859 20.297 380.689 14.4192 377.952 12.5375Z" fill="#7BA9E5" stroke="black" stroke-linecap="round" stroke-linejoin="round"/>
<path d="M364.373 237.961C369.768 237.873 372.268 232.191 372.844 229.361C372.813 236.007 376.52 239.442 378.377 240.328C372.851 241.109 370.062 247.133 369.358 250.048C370.267 243.744 366.414 239.363 364.373 237.961Z" fill="#EC90A2" stroke="black" stroke-linecap="round" stroke-linejoin="round"/>
<path d="M20.8545 371.032C31.0591 370.865 35.788 360.118 36.8768 354.766C36.8191 367.337 43.8299 373.833 47.3427 375.51C36.8904 376.986 31.6145 388.381 30.2834 393.894C32.0023 381.972 24.7139 373.685 20.8545 371.032Z" fill="#B9FD4C" stroke="black" stroke-linecap="round" stroke-linejoin="round"/>
<path d="M327.257 346.16C345.435 293.194 359.465 160.18 367.623 89.4219L155.455 66.1995C154.188 136.711 137.334 237.377 129.066 278.896C112.529 298.072 85.9986 336.847 112.177 338.536C137.159 340.147 251.729 348.937 315.354 353.712C320.626 354.108 325.541 351.16 327.257 346.16Z" fill="#7BA9E5"/>
<path d="M327.257 346.16C345.435 293.194 359.465 160.18 367.623 89.4219L155.455 66.1995C154.188 136.711 137.334 237.377 129.066 278.896C112.529 298.072 85.9986 336.847 112.177 338.536C137.159 340.147 251.729 348.937 315.354 353.712C320.626 354.108 325.541 351.16 327.257 346.16Z" stroke="black" stroke-linecap="round" stroke-linejoin="round"/>
<path d="M130.649 292.618C152.183 278.685 162.843 134.811 165.483 64.6161L351.79 80.4499C355.2 112.165 341.166 213.496 329.431 287.172C325.159 313.994 301.607 333.31 274.454 332.668L165.483 330.091C144.899 323.406 109.115 306.552 130.649 292.618Z" fill="white"/>
<path d="M165.483 330.091C144.899 323.406 109.115 306.552 130.649 292.618C131.068 292.347 131.483 292.027 131.894 291.659C137.116 292.106 142.401 292.334 147.738 292.334C248.942 292.334 330.983 210.293 330.983 109.09C330.983 98.6551 330.11 88.4233 328.435 78.4645L351.79 80.4493C355.242 112.557 340.817 216.009 328.998 289.888C324.957 315.148 302.775 333.338 277.202 332.733L165.483 330.091Z" fill="#E6E6E6"/>
<path d="M369.641 61.4346C323.99 54.1709 211.881 44.6111 155.431 40.266C152.481 40.0385 149.828 42.041 149.519 44.9837C148.732 52.4832 148.858 62.1355 149.272 68.7974C149.457 71.7944 151.944 74.048 154.944 74.1983C184.75 75.695 304.276 87.6782 367.789 95.216C370.275 95.5108 372.599 94.0253 373.051 91.5624C374.434 84.0487 374.339 73.3931 373.952 66.1912C373.823 63.7784 372.027 61.8143 369.641 61.4346Z" fill="black"/>
<path d="M369.641 61.4346C323.99 54.1709 211.881 44.6111 155.431 40.266C152.481 40.0385 149.828 42.041 149.519 44.9837C148.732 52.4832 148.858 62.1355 149.272 68.7974C149.457 71.7944 151.944 74.048 154.944 74.1983C184.75 75.695 304.276 87.6782 367.789 95.216C370.275 95.5108 372.599 94.0253 373.051 91.5624C374.434 84.0487 374.339 73.3931 373.952 66.1912C373.823 63.7784 372.027 61.8143 369.641 61.4346Z" stroke="black" stroke-linecap="round" stroke-linejoin="round"/>
<path d="M130.649 292.618C152.183 278.685 162.843 134.811 165.483 64.6161L351.79 80.4499C355.2 112.165 341.166 213.496 329.431 287.172C325.159 313.994 301.607 333.31 274.454 332.668L165.483 330.091C144.899 323.406 109.115 306.552 130.649 292.618Z" stroke="black" stroke-linecap="round" stroke-linejoin="round"/>
<path d="M314.056 71.8522C286.505 64.7924 245.947 60.1325 226.529 60.215C224.273 60.225 222.242 61.6044 221.617 63.7726C219.254 71.9724 219.451 82.6234 220.508 89.1979C220.829 91.1981 222.326 92.7443 224.287 93.2537C244.147 98.4135 285.462 102.322 307.886 103.942C310.37 104.121 312.704 102.71 313.498 100.349C315.917 93.1576 317.441 84.2132 318.22 77.921C318.566 75.1268 316.783 72.5507 314.056 71.8522Z" fill="#EC90A2"/>
<path d="M238.148 80.9812C242.895 80.9812 246.744 77.1328 246.744 72.3856C246.744 67.6384 242.895 63.79 238.148 63.79C233.401 63.79 229.552 67.6384 229.552 72.3856C229.552 77.1328 233.401 80.9812 238.148 80.9812Z" fill="black"/>
<path d="M300.39 88.6358C305.137 88.6358 308.985 84.7874 308.985 80.0402C308.985 75.293 305.137 71.4446 300.39 71.4446C295.642 71.4446 291.794 75.293 291.794 80.0402C291.794 84.7874 295.642 88.6358 300.39 88.6358Z" fill="black"/>
<path d="M314.056 71.8522C286.505 64.7924 245.947 60.1325 226.529 60.215C224.273 60.225 222.242 61.6044 221.617 63.7726C219.254 71.9724 219.451 82.6234 220.508 89.1979C220.829 91.1981 222.326 92.7443 224.287 93.2537C244.147 98.4135 285.462 102.322 307.886 103.942C310.37 104.121 312.704 102.71 313.498 100.349C315.917 93.1576 317.441 84.2132 318.22 77.921C318.566 75.1268 316.783 72.5507 314.056 71.8522Z" stroke="black" stroke-linecap="round" stroke-linejoin="round"/>
<path d="M238.759 58.4878C241.711 49.9437 243.264 39.6913 238.759 38.9149C235.541 38.3596 234.313 43.3803 234.013 46.784C231.777 46.5859 229.55 46.3896 227.333 46.1957C227.333 46.1568 227.334 46.1179 227.336 46.0784C227.518 41.5381 230.787 36.4526 233.944 34.8185C237.101 33.1839 242.349 32.8207 246.284 37.1794C250.219 41.5381 248.403 52.4349 246.284 60.0623C244.166 67.6903 241.139 73.9254 237.748 72.049C234.358 70.1721 235.808 67.0313 238.759 58.4878Z" fill="#7BA9E5"/>
<path d="M227.333 46.1957L227.038 46.1915C227.036 46.346 227.153 46.4757 227.307 46.4892L227.333 46.1957ZM234.013 46.784L233.987 47.0776C234.065 47.084 234.142 47.0599 234.203 47.0098C234.263 46.9597 234.3 46.8877 234.307 46.8093L234.013 46.784ZM238.709 39.2049C239.7 39.3759 240.38 40.0614 240.798 41.2009C241.22 42.3498 241.357 43.925 241.261 45.773C241.069 49.4632 239.952 54.1332 238.481 58.3917L239.038 58.5838C240.518 54.2982 241.654 49.5699 241.85 45.8037C241.948 43.9238 241.813 42.2561 241.352 40.9975C240.886 39.729 240.071 38.8418 238.809 38.6243L238.709 39.2049ZM238.481 58.3917C237.013 62.6407 235.897 65.6017 235.584 67.7257C235.426 68.7956 235.465 69.6928 235.79 70.455C236.117 71.2237 236.719 71.8156 237.606 72.3066L237.891 71.7908C237.083 71.344 236.594 70.8394 236.332 70.2239C236.068 69.6026 236.018 68.8286 236.167 67.8111C236.47 65.7591 237.554 62.8783 239.038 58.5838L238.481 58.3917ZM237.606 72.3066C238.547 72.8283 239.48 72.7841 240.357 72.2983C241.214 71.8232 242.009 70.9331 242.742 69.7777C244.211 67.4622 245.507 63.9624 246.568 60.1413L246 59.9833C244.943 63.7902 243.666 67.2217 242.244 69.4617C241.532 70.5841 240.802 71.3776 240.072 71.7825C239.361 72.1763 238.644 72.2082 237.891 71.7908L237.606 72.3066ZM246.568 60.1413C247.631 56.3167 248.62 51.6626 248.848 47.4106C248.963 45.2843 248.887 43.2488 248.531 41.4632C248.175 39.6788 247.535 38.1244 246.503 36.9819L246.065 37.3769C247.002 38.4132 247.609 39.8557 247.953 41.5788C248.297 43.3001 248.373 45.2826 248.26 47.3794C248.034 51.5718 247.056 56.1805 246 59.9833L246.568 60.1413ZM246.503 36.9819C242.457 32.5 237.054 32.8761 233.808 34.5562L234.079 35.0802C237.148 33.4915 242.241 33.1408 246.065 37.3769L246.503 36.9819ZM233.808 34.5562C232.165 35.4068 230.524 37.1352 229.271 39.2061C228.018 41.2805 227.135 43.7346 227.041 46.0666L227.63 46.0902C227.719 43.8813 228.561 41.5228 229.776 39.5108C230.994 37.496 232.565 35.8637 234.079 35.0802L233.808 34.5562ZM227.041 46.0666C227.04 46.1084 227.038 46.1503 227.038 46.1915L227.627 46.1992C227.628 46.1633 227.629 46.1267 227.63 46.0902L227.041 46.0666ZM227.307 46.4892C229.524 46.6832 231.751 46.8795 233.987 47.0776L234.039 46.4904C231.803 46.2924 229.576 46.0961 227.359 45.9021L227.307 46.4892ZM234.307 46.8093C234.455 45.1222 234.833 43.0549 235.559 41.4886C235.922 40.7057 236.362 40.0697 236.883 39.6641C237.395 39.2656 237.992 39.0817 238.709 39.2049L238.809 38.6243C237.918 38.4704 237.154 38.7056 236.521 39.199C235.897 39.6847 235.408 40.4128 235.024 41.241C234.257 42.8969 233.871 45.0415 233.72 46.7581L234.307 46.8093Z" fill="black"/>
<path d="M300.95 63.4525C303.901 54.909 306.824 45.9204 302.319 45.1435C299.172 44.6011 297.928 49.3878 297.594 52.7821C295.381 52.5575 293.15 52.3335 290.905 52.1095C291.172 47.6205 294.391 42.6582 297.503 41.0471C300.661 39.4124 305.909 39.0493 309.844 43.408C313.779 47.7667 311.962 58.6634 309.844 66.2915C307.725 73.9189 303.734 82.5219 300.345 80.645C296.955 78.7686 297.999 71.9966 300.95 63.4525Z" fill="#7BA9E5"/>
<path d="M297.594 52.7821L297.565 53.0757C297.642 53.0833 297.72 53.0604 297.781 53.0102C297.842 52.9607 297.88 52.8894 297.888 52.811L297.594 52.7821ZM290.905 52.1095L290.611 52.0924C290.602 52.2498 290.718 52.3872 290.876 52.4031L290.905 52.1095ZM302.269 45.4341C302.78 45.5219 303.171 45.723 303.469 46.0136C303.769 46.3066 303.991 46.7056 304.137 47.212C304.432 48.2342 304.406 49.6454 304.139 51.3396C303.608 54.721 302.149 59.0779 300.671 63.3564L301.228 63.5486C302.702 59.283 304.181 54.8742 304.722 51.431C304.992 49.7132 305.035 48.1976 304.704 47.0487C304.537 46.4698 304.271 45.9723 303.88 45.5915C303.488 45.2089 302.984 44.959 302.369 44.8529L302.269 45.4341ZM300.671 63.3564C299.193 67.6349 298.184 71.4938 297.975 74.529C297.768 77.5402 298.342 79.874 300.201 80.9032L300.487 80.3874C298.957 79.5403 298.358 77.5496 298.563 74.5691C298.767 71.6134 299.755 67.8141 301.228 63.5486L300.671 63.3564ZM300.201 80.9032C301.185 81.4479 302.197 81.2068 303.138 80.503C304.068 79.8062 304.975 78.6284 305.825 77.1818C307.529 74.2815 309.064 70.1969 310.128 66.3705L309.56 66.2125C308.504 70.0135 306.985 74.0439 305.316 76.8829C304.481 78.3059 303.622 79.4041 302.784 80.0308C301.957 80.6503 301.198 80.7812 300.487 80.3874L300.201 80.9032ZM310.128 66.3705C311.19 62.5459 312.179 57.8918 312.408 53.6398C312.522 51.5135 312.447 49.478 312.091 47.6919C311.735 45.9075 311.094 44.353 310.062 43.2105L309.625 43.6055C310.561 44.6424 311.169 46.0843 311.513 47.8074C311.856 49.5287 311.932 51.5118 311.82 53.608C311.594 57.801 310.616 62.4091 309.56 66.2125L310.128 66.3705ZM310.062 43.2105C306.017 38.7292 300.613 39.1047 297.368 40.7854L297.639 41.3088C300.708 39.7202 305.801 39.3694 309.625 43.6055L310.062 43.2105ZM297.888 52.811C298.053 51.128 298.443 49.122 299.167 47.614C299.529 46.8607 299.965 46.2529 300.477 45.8662C300.981 45.4866 301.567 45.3133 302.269 45.4341L302.369 44.8529C301.497 44.7025 300.748 44.9242 300.122 45.3952C299.506 45.8597 299.02 46.5594 298.636 47.3588C297.868 48.9575 297.469 51.0419 297.301 52.7532L297.888 52.811ZM290.876 52.4031C293.12 52.6265 295.351 52.8511 297.565 53.0757L297.624 52.4891C295.41 52.2645 293.179 52.0399 290.935 51.8165L290.876 52.4031ZM297.368 40.7854C295.748 41.6236 294.13 43.3143 292.886 45.3451C291.64 47.3788 290.748 49.7881 290.611 52.0924L291.199 52.1272C291.329 49.9414 292.18 47.6252 293.389 45.6528C294.599 43.6774 296.147 42.0811 297.639 41.3088L297.368 40.7854Z" fill="black"/>
<path d="M190.371 149.18C190.576 144.154 191.528 138.235 192.356 134.065C192.715 132.263 194.154 130.926 195.989 131.016C200.338 131.232 207.464 132.455 212.766 133.498C214.898 133.917 216.435 135.771 216.265 137.938C215.966 141.745 215.217 146.404 214.476 150.331C213.911 153.328 210.591 154.936 207.604 154.315C203.488 153.461 199.059 153.399 195.49 153.63C192.768 153.807 190.26 151.906 190.371 149.18Z" stroke="black" stroke-linecap="round" stroke-linejoin="round"/>
<path d="M197.77 140.482L204.739 146.619C208.866 143.776 218.949 136.196 226.272 128.623" stroke="black" stroke-linecap="round" stroke-linejoin="round"/>
<path d="M186.832 194.571C186.424 189.557 186.647 183.566 186.962 179.327C187.098 177.494 188.363 175.991 190.196 175.858C194.539 175.542 201.761 175.888 207.15 176.278C209.317 176.434 211.069 178.087 211.164 180.258C211.332 184.073 211.155 188.79 210.898 192.777C210.702 195.821 207.602 197.821 204.562 197.569C200.373 197.223 195.97 197.7 192.455 198.365C189.775 198.872 187.053 197.289 186.832 194.571Z" stroke="black" stroke-linecap="round" stroke-linejoin="round"/>
<path d="M193.116 185.036L200.781 190.279C204.531 186.954 213.616 178.202 219.962 169.794" stroke="black" stroke-linecap="round" stroke-linejoin="round"/>
<path d="M235.003 140.217C252.244 142.512 290.56 146.804 305.892 145.613" stroke="black" stroke-linecap="round" stroke-linejoin="round"/>
<path d="M232.211 153.056C245.36 155.226 278.578 159.457 306.264 159.01" stroke="black" stroke-linecap="round" stroke-linejoin="round"/>
<path d="M229.234 180.593C239.53 181.709 263.395 183.83 276.494 183.384" stroke="black" stroke-linecap="round" stroke-linejoin="round"/>
<path d="M229.234 193.059C245.794 194.423 281.815 196.743 293.426 195.105" stroke="black" stroke-linecap="round" stroke-linejoin="round"/>
<path d="M184.58 227.48L209.14 230.085L219.001 214.828C219.435 226.674 220.453 250.105 221.048 249.063C221.643 248.022 225.885 232.752 227.932 225.247L231.467 234.55L239.096 214.828L241.887 242.551L247.097 226.55L249.515 232.318L267.446 233.613L270.694 228.415L274.917 240.109L279.356 226.55L283.146 235.561L291.484 210.116L293.65 246.39L297.331 227.48L300.363 233.613H311.191" stroke="black" stroke-linecap="round" stroke-linejoin="round"/>
<path d="M252.675 304.859C255.693 302.591 261.469 297.959 266.751 293.01M266.751 293.01C269.217 290.7 271.575 288.322 273.495 286.082C281.037 277.283 284.336 271.548 281.351 268.798C278.366 266.048 267.393 277.94 266.751 293.01ZM266.751 293.01C266.59 295.31 267.555 299.045 272.709 295.588C279.151 291.267 283.158 286.789 283.315 288.911C283.472 291.032 281.272 294.174 282.294 295.588C283.315 297.002 288.657 293.01 289.757 293.01C290.857 293.01 289.757 295.902 290.543 297.238C291.328 298.573 294.157 298.023 298.635 292.603" stroke="black" stroke-linecap="round" stroke-linejoin="round"/>
<path d="M267.131 309.494C272.97 310.254 286.521 311.207 294 308.944" stroke="black" stroke-linecap="round" stroke-linejoin="round"/>
<path d="M145.334 306.159C151.101 263.696 119.05 248.129 102.303 245.654L73.6912 279.858L119.132 388.799L221.786 376.495C213.573 359.02 194.482 359.311 185.963 361.641C191.205 317.256 161.062 306.159 145.334 306.159Z" fill="white"/>
<path d="M102.303 245.654C119.05 248.129 151.101 263.696 145.334 306.159C161.061 306.159 191.205 317.256 185.963 361.641C194.482 359.311 213.573 359.02 221.786 376.495" stroke="black" stroke-linecap="round" stroke-linejoin="round"/>
</svg>
