<svg width="20" height="15" viewBox="0 0 20 15" fill="none" xmlns="http://www.w3.org/2000/svg">
<path d="M1.45833 0H18.5417C19.3467 0 20 0.653333 20 1.45833V13.125C20 13.5118 19.8464 13.8827 19.5729 14.1562C19.2994 14.4297 18.9284 14.5833 18.5417 14.5833H1.45833C1.07156 14.5833 0.700626 14.4297 0.427136 14.1562C0.153645 13.8827 0 13.5118 0 13.125L0 1.45833C0 0.653333 0.653333 0 1.45833 0ZM1.25 3.67667V13.125C1.25 13.24 1.34333 13.3333 1.45833 13.3333H18.5417C18.5969 13.3333 18.6499 13.3114 18.689 13.2723C18.7281 13.2332 18.75 13.1803 18.75 13.125V3.67667L10.8167 9.0375C10.3233 9.37083 9.67667 9.37083 9.18333 9.0375L1.25 3.67667ZM1.25 1.45833V2.16833L9.88333 8.00167C9.91778 8.02495 9.95842 8.0374 10 8.0374C10.0416 8.0374 10.0822 8.02495 10.1167 8.00167L18.75 2.16833V1.45833C18.75 1.40308 18.7281 1.35009 18.689 1.31102C18.6499 1.27195 18.5969 1.25 18.5417 1.25H1.45833C1.40308 1.25 1.35009 1.27195 1.31102 1.31102C1.27195 1.35009 1.25 1.40308 1.25 1.45833Z" fill="#949494"/>
</svg>
