<svg width="24" height="24" viewBox="0 0 24 24" fill="none" xmlns="http://www.w3.org/2000/svg">
<path d="M21 22H3M19 22V15M5 22V15" stroke="#4D5761" stroke-width="1.5" stroke-linecap="round"/>
<path d="M16.5276 2H7.47158C6.26858 2 5.66758 2 5.18458 2.299C4.70058 2.597 4.43158 3.135 3.89458 4.211L2.48958 7.76C2.16558 8.58 1.88158 9.546 2.42758 10.239C2.6848 10.566 3.0376 10.8047 3.43685 10.9218C3.8361 11.0388 4.26192 11.0285 4.655 10.8921C5.04809 10.7558 5.38886 10.5002 5.62987 10.1611C5.87087 9.82192 6.00011 9.41606 5.99958 9C5.99958 9.53043 6.21029 10.0391 6.58537 10.4142C6.96044 10.7893 7.46915 11 7.99958 11C8.53001 11 9.03872 10.7893 9.41379 10.4142C9.78887 10.0391 9.99958 9.53043 9.99958 9C9.99958 9.53043 10.2103 10.0391 10.5854 10.4142C10.9604 10.7893 11.4691 11 11.9996 11C12.53 11 13.0387 10.7893 13.4138 10.4142C13.7889 10.0391 13.9996 9.53043 13.9996 9C13.9996 9.53043 14.2103 10.0391 14.5854 10.4142C14.9604 10.7893 15.4691 11 15.9996 11C16.53 11 17.0387 10.7893 17.4138 10.4142C17.7889 10.0391 17.9996 9.53043 17.9996 9C17.9995 9.41573 18.129 9.82114 18.37 10.1599C18.6111 10.4986 18.9517 10.7538 19.3445 10.8899C19.7373 11.0261 20.1627 11.0365 20.5617 10.9197C20.9607 10.8028 21.3133 10.5646 21.5706 10.238C22.1166 9.545 21.8326 8.579 21.5086 7.759L20.1046 4.211C19.5676 3.135 19.2986 2.597 18.8146 2.299C18.3316 2 17.7306 2 16.5276 2Z" stroke="#4D5761" stroke-width="1.5" stroke-linejoin="round"/>
</svg>
