<svg width="24" height="24" viewBox="0 0 24 24" fill="none" xmlns="http://www.w3.org/2000/svg">
<path d="M10.038 5.31622L10.687 6.47922C11.272 7.52922 11.037 8.90522 10.115 9.82822C10.115 9.82822 8.99503 10.9472 11.025 12.9762C13.052 15.0032 14.172 13.8862 14.172 13.8862C15.095 12.9632 16.472 12.7282 17.521 13.3132L18.684 13.9632C20.269 14.8472 20.456 17.0692 19.063 18.4632C18.226 19.2992 17.2 19.9512 16.067 19.9932C14.159 20.0662 10.918 19.5832 7.66703 16.3332C4.41703 13.0822 3.93403 9.84122 4.00703 7.93322C4.05003 6.80022 4.70103 5.77422 5.53703 4.93722C6.93103 3.54422 9.15303 3.73122 10.037 5.31722L10.038 5.31622Z" stroke="#4D5761" stroke-width="1.5" stroke-linecap="round"/>
</svg>
