<svg width="84" height="73" viewBox="0 0 84 73" fill="none" xmlns="http://www.w3.org/2000/svg">
<g clip-path="url(#clip0_2025_29)">
<path fill-rule="evenodd" clip-rule="evenodd" d="M77.2441 38.8633C74.2065 36.4856 75.0183 36.6865 68.55 39.251C62.886 41.4578 65.6766 41.8758 60.2357 39.229C55.4205 36.9461 47.5252 34.6772 43.7578 32.7847C44.7981 29.7888 55.5355 19.2334 58.0237 15.0404L54.9681 13.8661C53.1499 13.1672 53.6116 13.1224 51.5786 14.428C47.2712 17.3784 33.6016 26.6956 30.794 28.0245C26.8405 26.6162 16.511 22.4238 13.0991 22.7548C11.4714 23.006 8.78618 23.7274 9.43628 25.7307C11.1951 30.5681 20.3532 32.6679 26.3451 34.7485C28.7336 35.6665 28.1154 35.5401 28.9221 38.0357C29.7403 40.7582 35.0959 60.4623 36.0545 61.374C36.4906 61.6528 39.7771 62.8048 40.3473 63.024C40.6216 61.1536 40.612 59.1866 40.6066 57.2088L40.7338 45.7613C40.6539 43.9772 40.756 41.7196 40.859 40.0057C43.5869 41.1653 46.3999 42.1353 49.2618 43.2353C63.3884 48.6647 60.5349 44.3944 64.3632 51.5584C66.4421 55.5309 66.6263 57.9109 70.5892 57.0137C69.3005 48.9612 71.1248 43.6363 77.2334 38.8591L77.2441 38.8633Z" fill="black"/>
</g>
<defs>
<clipPath id="clip0_2025_29">
<rect width="68.72" height="51.1769" fill="white" transform="translate(64.676 72.4238) rotate(-158.976)"/>
</clipPath>
</defs>
</svg>
