<svg width="24" height="25" viewBox="0 0 24 25" fill="none" xmlns="http://www.w3.org/2000/svg">
<g clip-path="url(#clip0_290_7343)">
<path d="M23.2968 0.573919H19.6547C19.5818 0.575748 19.4571 0.586999 19.3393 0.648602L10.0411 5.31423H3.39119C3.00282 5.31423 2.68797 5.62909 2.68797 6.01746V6.29396H1.50139C0.67355 6.29396 0 6.96751 0 7.7954V12.3139C0 13.1418 0.67355 13.8153 1.50144 13.8153H2.68801V14.0918C2.68801 14.4802 3.00287 14.795 3.39124 14.795H4.29057V22.8166C4.29057 23.2049 4.60543 23.5198 4.9938 23.5198H8.16643C8.5548 23.5198 8.86966 23.2049 8.86966 22.8166V20.7199H9.87766C10.266 20.7199 10.5809 20.4051 10.5809 20.0167C10.5809 19.6283 10.266 19.3135 9.87766 19.3135H8.86966V18.0139H9.87766C10.266 18.0139 10.5809 17.6991 10.5809 17.3107C10.5809 16.9223 10.266 16.6075 9.87766 16.6075H8.86966V14.795H10.0539L19.3612 19.0699C19.4316 19.0974 19.4795 19.1229 19.6547 19.1343H23.2968C23.6852 19.1343 24 18.8194 24 18.431V1.27715C24 0.888777 23.6851 0.573919 23.2968 0.573919ZM18.9514 17.334L10.9109 13.641V6.45139L18.9514 2.41679V17.334ZM7.42392 13.3886V6.72068H9.50439V13.3886H7.42392ZM1.50144 12.4089C1.47625 12.4089 1.45211 12.3989 1.4343 12.381C1.41649 12.3632 1.40648 12.3391 1.40645 12.3139V7.79545C1.40645 7.74308 1.44907 7.70047 1.50144 7.70047H2.68801V12.4089H1.50144V12.4089ZM4.09442 6.72068H6.01746V13.3886H4.09442V6.72068ZM7.46316 22.1134H5.69698V14.7951H7.46316V22.1134ZM22.5935 17.7279H20.3579V1.98037H22.5935V17.7279Z" fill="#6C737F"/>
</g>
<defs>
<clipPath id="clip0_290_7343">
<rect width="24" height="24" fill="white" transform="translate(0 0.046875)"/>
</clipPath>
</defs>
</svg>
