<svg xmlns="http://www.w3.org/2000/svg" width="16" height="17.778" viewBox="0 0 16 17.778">
  <path id="Path_686" data-name="Path 686" d="M215.079,279.684v.666a4.172,4.172,0,0,0-4.068,4.42l-.01,7.49a4.205,4.205,0,0,0,4.558,4.51l6.862.009a4.249,4.249,0,0,0,4.57-4.551l.01-7.4a4.169,4.169,0,0,0-4.005-4.465v-.666a.676.676,0,1,0-1.352,0v.621l-5.212-.007v-.621a.676.676,0,1,0-1.352,0Zm10.569,5.416-13.288-.018v-.311a2.755,2.755,0,0,1,2.716-3.062v.684a.676.676,0,1,0,1.352,0v-.72l5.212.007v.719a.676.676,0,1,0,1.352,0v-.684c1.711.172,2.658,1.178,2.656,3.1Zm-9.528,4.037v.01a.723.723,0,0,1-.747.71.733.733,0,1,1,.747-.72Zm-.724,3.989a.754.754,0,0,0,.73-.755.74.74,0,0,0-.719-.756H215.4a.756.756,0,0,0,0,1.511Zm4.34-3.975a.725.725,0,1,1-.719-.764A.759.759,0,0,1,219.736,289.151Zm-.759,3.935a.732.732,0,0,0,.756-.71.76.76,0,0,0-.719-.764.738.738,0,0,0-.036,1.475Zm4.375-3.9a.724.724,0,1,1-.718-.764A.757.757,0,0,1,223.352,289.182Zm-.759,3.908a.731.731,0,0,0,.756-.71.759.759,0,0,0-.719-.764.738.738,0,0,0-.036,1.475Z" transform="translate(-211 -279)" fill="#c4c4d2" fill-rule="evenodd"/>
</svg>
