<svg width="24" height="25" viewBox="0 0 24 25" fill="none" xmlns="http://www.w3.org/2000/svg">
<g clip-path="url(#clip0_274_2014)">
<path d="M23.5504 11.1832L19.6886 9.25245L23.5504 7.3215C24.2411 6.9762 24.2418 5.98699 23.5504 5.64113L12.4662 0.099052C12.3358 0.033903 12.1919 -1.14441e-05 12.0461 -1.14441e-05C11.9003 -1.14441e-05 11.7565 0.033903 11.626 0.099052L0.54185 5.64113C-0.148936 5.98661 -0.149641 6.97583 0.54185 7.3215L4.4035 9.25245L0.541757 11.1832C-0.148983 11.5287 -0.149688 12.5177 0.541757 12.8636L4.40355 14.7945L0.541803 16.7253C-0.148936 17.0708 -0.149641 18.0598 0.541803 18.4056L11.626 23.9477C11.7564 24.0129 11.9002 24.0469 12.0461 24.0469C12.1919 24.0469 12.3357 24.0129 12.4662 23.9477L23.5503 18.4056C24.2411 18.0602 24.2418 17.0711 23.5503 16.7253L19.6887 14.7945L23.5504 12.8636C24.2412 12.5183 24.2419 11.5291 23.5504 11.1832L23.5504 11.1832ZM12.0461 1.98951L21.0298 6.48141L12.0461 10.9732L3.06241 6.48141L12.0461 1.98951ZM21.0298 17.5656L12.0461 22.0573L3.06241 17.5656L6.50399 15.8447L11.626 18.4056C11.7564 18.4708 11.9002 18.5048 12.0461 18.5048C12.1919 18.5048 12.3357 18.4708 12.4662 18.4056L17.5881 15.8446L21.0298 17.5656ZM12.0461 16.5152L3.06241 12.0235L6.50399 10.3026L11.626 12.8636C11.7564 12.9288 11.9002 12.9627 12.0461 12.9627C12.1919 12.9627 12.3357 12.9288 12.4662 12.8636L17.5881 10.3026L21.0298 12.0235L12.0461 16.5152Z" fill="#9DA4AE"/>
</g>
<defs>
<clipPath id="clip0_274_2014">
<rect width="24" height="24.0469" fill="white"/>
</clipPath>
</defs>
</svg>
