<?xml version="1.0"?>
<svg xmlns:inkscape="http://www.inkscape.org/namespaces/inkscape" xmlns:sodipodi="http://sodipodi.sourceforge.net/DTD/sodipodi-0.dtd" xmlns:xlink="http://www.w3.org/1999/xlink" xmlns="http://www.w3.org/2000/svg" xmlns:svg="http://www.w3.org/2000/svg" width="23.999908" height="24.000023" viewBox="0 0 6.3499757 6.3500061" version="1.1" id="svg5" xml:space="preserve"><defs id="defs2"><linearGradient id="linearGradient13124"><stop style="stop-color:#ffebbf;stop-opacity:1" offset="0" id="stop13120"/><stop style="stop-color:#ffd780;stop-opacity:1" offset="1" id="stop13122"/></linearGradient><linearGradient id="linearGradient11189"><stop style="stop-color:#ffae00;stop-opacity:1" offset="0" id="stop11185"/><stop style="stop-color:#ffc240;stop-opacity:1" offset="1" id="stop11187"/></linearGradient><linearGradient xlink:href="#linearGradient13124" id="linearGradient10616" gradientUnits="userSpaceOnUse" gradientTransform="rotate(180,38.893737,203.59682)" x1="38.893749" y1="5.8208332" x2="38.893749" y2="0.52916664"/><linearGradient xlink:href="#linearGradient11189" id="linearGradient11191" x1="38.893749" y1="406.13541" x2="38.893749" y2="401.90207" gradientUnits="userSpaceOnUse"/></defs><g id="layer1" transform="translate(-35.718766,-400.84375)"><g id="g7805"><path id="path7493" style="font-variation-settings:'wght' 800;fill:url(#linearGradient10616);stroke-width:0.264583;stroke-linecap:round;stroke-linejoin:round;paint-order:stroke fill markers" d="m 40.745836,406.66459 h -3.704165 c -0.439738,0 -0.79375,-0.35401 -0.79375,-0.79375 v -3.70417 c 0,-0.43974 0.354012,-0.79376 0.79375,-0.79376 h 3.704165 c 0.439738,0 0.79375,0.35402 0.79375,0.79376 v 3.70417 c 0,0.43974 -0.354012,0.79375 -0.79375,0.79375 z"/><path id="path7490" style="color:#000000;fill:url(#linearGradient11191);fill-opacity:1;stroke-width:1;stroke-linecap:round;stroke-linejoin:round;-inkscape-stroke:none;paint-order:stroke fill markers" d="m 38.892926,401.90208 c -1.166635,0 -2.115837,0.95086 -2.115839,2.11749 2e-6,1.16664 0.949203,2.11584 2.115839,2.11584 1.166637,0 2.117492,-0.9492 2.117494,-2.11584 -2e-6,-1.16663 -0.950857,-2.11749 -2.117494,-2.11749 z m 4.14e-4,0.84667 a 0.21158304,0.21169337 22.519125 0 1 0.212494,0.21084 l -4.14e-4,0.9281 0.8107,0.47956 a 0.21158304,0.21169337 22.519125 0 1 0.07482,0.29063 0.21158304,0.21169337 22.519125 0 1 -0.290628,0.0736 l -0.915293,-0.54033 a 0.2116042,0.21171454 22.519729 0 1 -0.10294,-0.18314 l 4.14e-4,-1.04841 a 0.21158304,0.21169337 22.519125 0 1 0.21084,-0.21084 z"/></g></g></svg>
