<svg width="24" height="23" viewBox="0 0 24 23" fill="none" xmlns="http://www.w3.org/2000/svg">
<path fill-rule="evenodd" clip-rule="evenodd" d="M13.1287 1.08447C13.3652 1.00576 13.6164 0.981625 13.8635 1.01388C14.1106 1.04614 14.3472 1.13394 14.5555 1.27071C14.7639 1.40748 14.9385 1.58965 15.0664 1.80357C15.1942 2.01748 15.272 2.25757 15.2938 2.50582L15.3004 2.65104V8.68631L19.4742 9.5224C19.8221 9.59172 20.1383 9.77126 20.3761 10.0344C20.6139 10.2976 20.7605 10.6303 20.7944 10.9834L20.801 11.1396V19.4895H21.9011C22.1815 19.4898 22.4512 19.5972 22.6551 19.7897C22.859 19.9822 22.9817 20.2452 22.9981 20.5252C23.0145 20.8051 22.9235 21.0807 22.7435 21.2957C22.5635 21.5107 22.3082 21.6489 22.0298 21.682L21.9011 21.6897H2.0989C1.8185 21.6894 1.54881 21.5821 1.34491 21.3896C1.14102 21.1971 1.01832 20.934 1.00189 20.6541C0.98546 20.3742 1.07653 20.0986 1.2565 19.8835C1.43647 19.6685 1.69175 19.5303 1.97019 19.4972L2.0989 19.4895H3.19902V5.58396C3.19902 4.92389 3.59067 4.33423 4.18693 4.0724L4.32775 4.01849L13.1287 1.08447ZM13.1001 3.41452L5.39927 5.98111V19.4895H13.1001V3.41452ZM15.3004 10.9317V19.4895H18.6007V11.5906L15.3004 10.9317Z" fill="#949494" stroke="white" stroke-width="0.8"/>
</svg>
