<svg width="19" height="20" viewBox="0 0 19 20" fill="none" xmlns="http://www.w3.org/2000/svg">
<path d="M16.0073 7.34015L15.7073 16.4204C15.6818 17.1981 15.3542 17.9352 14.7941 18.4753C14.2339 19.0153 13.4854 19.3159 12.7073 19.3131H7.00732C6.22974 19.3159 5.48164 19.0158 4.9216 18.4763C4.36157 17.9369 4.03364 17.2005 4.00732 16.4234L3.70732 7.34015C3.70076 7.14123 3.77348 6.94786 3.90949 6.80257C4.0455 6.65727 4.23366 6.57196 4.43257 6.5654C4.63148 6.55883 4.82486 6.63156 4.97015 6.76757C5.11544 6.90358 5.20076 7.09173 5.20732 7.29065L5.50732 16.3731C5.52226 16.7609 5.68686 17.1277 5.96657 17.3967C6.24627 17.6656 6.6193 17.8157 7.00732 17.8154H12.7073C13.0958 17.8157 13.4693 17.6652 13.7491 17.3956C14.0289 17.126 14.1931 16.7584 14.2073 16.3701L14.5073 7.29065C14.5139 7.09173 14.5992 6.90358 14.7445 6.76757C14.8898 6.63156 15.0832 6.55883 15.2821 6.5654C15.481 6.57196 15.6691 6.65727 15.8052 6.80257C15.9412 6.94786 16.0139 7.14123 16.0073 7.34015ZM16.9996 4.3184C16.9996 4.51731 16.9206 4.70808 16.7799 4.84873C16.6392 4.98938 16.4485 5.0684 16.2496 5.0684H3.46582C3.26691 5.0684 3.07614 4.98938 2.93549 4.84873C2.79484 4.70808 2.71582 4.51731 2.71582 4.3184C2.71582 4.11948 2.79484 3.92872 2.93549 3.78807C3.07614 3.64741 3.26691 3.5684 3.46582 3.5684H5.79082C6.02846 3.56904 6.25783 3.48124 6.43431 3.32209C6.61078 3.16295 6.72173 2.94384 6.74557 2.7074C6.80092 2.15276 7.06077 1.6386 7.47449 1.26508C7.88822 0.89156 8.42618 0.685447 8.98357 0.686897H10.7311C11.2885 0.685447 11.8264 0.89156 12.2401 1.26508C12.6539 1.6386 12.9137 2.15276 12.9691 2.7074C12.9929 2.94384 13.1039 3.16295 13.2803 3.32209C13.4568 3.48124 13.6862 3.56904 13.9238 3.5684H16.2488C16.4477 3.5684 16.6385 3.64741 16.7792 3.78807C16.9198 3.92872 16.9988 4.11948 16.9988 4.3184H16.9996ZM8.04757 3.5684H11.6686C11.57 3.3432 11.5056 3.10459 11.4773 2.8604C11.4587 2.67553 11.3722 2.50414 11.2345 2.37943C11.0967 2.25472 10.9176 2.18558 10.7318 2.1854H8.98432C8.79852 2.18558 8.6194 2.25472 8.48167 2.37943C8.34394 2.50414 8.2574 2.67553 8.23882 2.8604C8.21034 3.10462 8.14638 3.34324 8.04757 3.5684ZM8.80282 14.9316V8.5454C8.80282 8.34649 8.7238 8.15572 8.58315 8.01507C8.4425 7.87441 8.25173 7.7954 8.05282 7.7954C7.85391 7.7954 7.66314 7.87441 7.52249 8.01507C7.38184 8.15572 7.30282 8.34649 7.30282 8.5454V14.9346C7.30282 15.1336 7.38184 15.3243 7.52249 15.465C7.66314 15.6056 7.85391 15.6846 8.05282 15.6846C8.25173 15.6846 8.4425 15.6056 8.58315 15.465C8.7238 15.3243 8.80282 15.1336 8.80282 14.9346V14.9316ZM12.4133 14.9316V8.5454C12.4133 8.34649 12.3343 8.15572 12.1936 8.01507C12.053 7.87441 11.8622 7.7954 11.6633 7.7954C11.4644 7.7954 11.2736 7.87441 11.133 8.01507C10.9923 8.15572 10.9133 8.34649 10.9133 8.5454V14.9346C10.9133 15.1336 10.9923 15.3243 11.133 15.465C11.2736 15.6056 11.4644 15.6846 11.6633 15.6846C11.8622 15.6846 12.053 15.6056 12.1936 15.465C12.3343 15.3243 12.4133 15.1336 12.4133 14.9346V14.9316Z" fill="#F04438"/>
</svg>
