<svg width="24" height="18" viewBox="0 0 24 18" fill="none" xmlns="http://www.w3.org/2000/svg">
<path d="M21.75 18H2.25001C1.0093 18 0 16.9907 0 15.75V12C0 11.5854 0.335439 11.25 0.750005 11.25C1.99072 11.25 3.00002 10.2407 3.00002 8.99995C3.00002 7.75923 1.99072 6.74993 0.750005 6.74993C0.335439 6.74998 0 6.41454 0 5.99998V2.24995C0 1.00924 1.0093 -6.10352e-05 2.25001 -6.10352e-05H21.75C22.9908 -6.10352e-05 24.0001 1.00924 24.0001 2.24995V5.99998C24.0001 6.41454 23.6646 6.74998 23.25 6.74998C22.0093 6.74998 21 7.75928 21 9C21 10.2407 22.0093 11.25 23.25 11.25C23.6646 11.25 24.0001 11.5854 24.0001 12V15.75C24 16.9907 22.9908 18 21.75 18ZM1.50001 12.6745V15.75C1.50001 16.1638 1.83621 16.5 2.25001 16.5H21.75C22.1638 16.5 22.5 16.1638 22.5 15.75V12.6745C20.7906 12.3259 19.5 10.8113 19.5 8.99995C19.5 7.18863 20.7905 5.67403 22.5 5.32536V2.24995C22.5 1.83615 22.1638 1.49995 21.75 1.49995H2.25001C1.83621 1.49995 1.50001 1.83615 1.50001 2.24995V5.32541C3.20947 5.67403 4.50003 7.18868 4.50003 9C4.50003 10.8113 3.20947 12.3259 1.50001 12.6745Z" fill="#9DA4AE"/>
<path d="M9.04841 14.7263L13.5468 2.73059L14.9512 3.25726L10.4529 15.253L9.04841 14.7263ZM8.45216 9.25245C7.21145 9.25245 6.20215 8.24315 6.20215 7.00243C6.20215 5.76171 7.21145 4.75242 8.45216 4.75242C9.69288 4.75242 10.7022 5.76171 10.7022 7.00243C10.7022 8.24315 9.69288 9.25245 8.45216 9.25245ZM8.45216 6.25243C8.03836 6.25243 7.70216 6.58862 7.70216 7.00243C7.70216 7.41624 8.03836 7.75244 8.45216 7.75244C8.86597 7.75244 9.20217 7.41624 9.20217 7.00243C9.20217 6.58862 8.86597 6.25243 8.45216 6.25243ZM16.2046 13.9039C14.9639 13.9039 13.9546 12.8946 13.9546 11.6539C13.9546 10.4132 14.9639 9.40388 16.2046 9.40388C17.4454 9.40388 18.4546 10.4132 18.4546 11.6539C18.4546 12.8946 17.4454 13.9039 16.2046 13.9039ZM16.2046 10.9039C15.7908 10.9039 15.4546 11.2401 15.4546 11.6539C15.4546 12.0677 15.7908 12.4039 16.2046 12.4039C16.6184 12.4039 16.9546 12.0677 16.9546 11.6539C16.9546 11.2401 16.6184 10.9039 16.2046 10.9039Z" fill="#9DA4AE"/>
</svg>
