<svg width="36" height="36" viewBox="0 0 36 36" fill="none" xmlns="http://www.w3.org/2000/svg">
<rect width="36" height="36" rx="8" fill="#BAF5C6"/>
<path d="M28 28H8" stroke="black" stroke-width="1.5" stroke-linecap="round"/>
<path d="M23 28V12C23 10.114 23 9.172 22.414 8.586C21.828 8 20.886 8 19 8H17C15.114 8 14.172 8 13.586 8.586C13 9.172 13 10.114 13 12V28M27 28V14.5C27 13.096 27 12.393 26.663 11.889C26.517 11.6705 26.3295 11.483 26.111 11.337C25.607 11 24.904 11 23.5 11M9 28V14.5C9 13.096 9 12.393 9.337 11.889C9.48296 11.6705 9.67053 11.483 9.889 11.337C10.393 11 11.096 11 12.5 11" stroke="black" stroke-width="1.5"/>
<path d="M18 28V25M16 18H20M11.5 17H13M11.5 20H13M23 17H24.5M23 20H24.5M11.5 14H13M23 14H24.5M16 21H20" stroke="black" stroke-width="1.5" stroke-linecap="round"/>
<path d="M18 15V11M20 13H16" stroke="black" stroke-width="1.5" stroke-linecap="round" stroke-linejoin="round"/>
</svg>
