<svg width="24" height="24" viewBox="0 0 24 24" fill="none" xmlns="http://www.w3.org/2000/svg">
<path d="M9.78102 3.89001C10.345 3.41001 10.627 3.17001 10.921 3.02901C11.2578 2.86799 11.6263 2.78441 11.9995 2.78441C12.3728 2.78441 12.7413 2.86799 13.078 3.02901C13.373 3.16901 13.655 3.40901 14.218 3.89001C14.443 4.08201 14.555 4.17701 14.675 4.25701C14.9498 4.44118 15.2585 4.56898 15.583 4.63301C15.724 4.66101 15.871 4.67301 16.165 4.69701C16.904 4.75501 17.273 4.78501 17.581 4.89401C17.9328 5.01815 18.2524 5.21946 18.5162 5.48317C18.7801 5.74687 18.9816 6.06629 19.106 6.41801C19.215 6.72701 19.244 7.09601 19.303 7.83401C19.326 8.12801 19.338 8.27501 19.366 8.41701C19.43 8.74101 19.558 9.05001 19.742 9.32401C19.822 9.44401 19.918 9.55601 20.109 9.78101C20.589 10.345 20.83 10.627 20.971 10.921C21.132 11.2577 21.2156 11.6263 21.2156 11.9995C21.2156 12.3728 21.132 12.7413 20.971 13.078C20.831 13.372 20.59 13.654 20.109 14.218C19.9783 14.3634 19.8558 14.516 19.742 14.675C19.5579 14.9495 19.4301 15.2578 19.366 15.582C19.338 15.724 19.326 15.871 19.303 16.165C19.244 16.903 19.215 17.273 19.106 17.581C18.9816 17.9327 18.7801 18.2521 18.5162 18.5158C18.2524 18.7796 17.9328 18.9809 17.581 19.105C17.273 19.215 16.904 19.244 16.165 19.302C15.871 19.326 15.725 19.338 15.583 19.366C15.2585 19.43 14.9498 19.5578 14.675 19.742C14.5163 19.8558 14.3641 19.9783 14.219 20.109C13.655 20.589 13.373 20.829 13.079 20.97C12.7423 21.131 12.3738 21.2146 12.0005 21.2146C11.6273 21.2146 11.2588 21.131 10.922 20.97C10.627 20.83 10.345 20.59 9.78202 20.109C9.63662 19.9783 9.48405 19.8558 9.32502 19.742C9.05021 19.5578 8.74158 19.43 8.41702 19.366C8.22436 19.3339 8.03006 19.3126 7.83502 19.302C7.09602 19.244 6.72702 19.214 6.41902 19.105C6.06723 18.9809 5.74768 18.7796 5.4838 18.5158C5.21992 18.2521 5.0184 17.9327 4.89402 17.581C4.78502 17.273 4.75602 16.903 4.69702 16.165C4.68703 15.9696 4.666 15.775 4.63402 15.582C4.56987 15.2578 4.44208 14.9495 4.25802 14.675C4.17802 14.555 4.08202 14.443 3.89102 14.218C3.41102 13.654 3.17002 13.372 3.02902 13.078C2.868 12.7413 2.78442 12.3728 2.78442 11.9995C2.78442 11.6263 2.868 11.2577 3.02902 10.921C3.17002 10.627 3.41002 10.345 3.89102 9.78101C4.08202 9.55601 4.17802 9.44401 4.25802 9.32401C4.44208 9.0495 4.56987 8.74122 4.63402 8.41701C4.66202 8.27501 4.67402 8.12801 4.69702 7.83401C4.75602 7.09601 4.78502 6.72701 4.89402 6.41801C5.01851 6.06619 5.22017 5.7467 5.48423 5.48299C5.74829 5.21928 6.06804 5.01803 6.42002 4.89401C6.72802 4.78501 7.09702 4.75501 7.83602 4.69701C8.13002 4.67301 8.27602 4.66101 8.41802 4.63301C8.74259 4.56898 9.05121 4.44118 9.32602 4.25701C9.44602 4.17701 9.55702 4.08201 9.78102 3.89001Z" stroke="#9DA4AE" stroke-width="1.5"/>
<path d="M9 15L15 9" stroke="#9DA4AE" stroke-width="1.5" stroke-linecap="round"/>
<path d="M15.5 14.5C15.5 14.7652 15.3946 15.0196 15.2071 15.2071C15.0196 15.3946 14.7652 15.5 14.5 15.5C14.2348 15.5 13.9804 15.3946 13.7929 15.2071C13.6054 15.0196 13.5 14.7652 13.5 14.5C13.5 14.2348 13.6054 13.9804 13.7929 13.7929C13.9804 13.6054 14.2348 13.5 14.5 13.5C14.7652 13.5 15.0196 13.6054 15.2071 13.7929C15.3946 13.9804 15.5 14.2348 15.5 14.5ZM10.5 9.5C10.5 9.76522 10.3946 10.0196 10.2071 10.2071C10.0196 10.3946 9.76522 10.5 9.5 10.5C9.23478 10.5 8.98043 10.3946 8.79289 10.2071C8.60536 10.0196 8.5 9.76522 8.5 9.5C8.5 9.23478 8.60536 8.98043 8.79289 8.79289C8.98043 8.60536 9.23478 8.5 9.5 8.5C9.76522 8.5 10.0196 8.60536 10.2071 8.79289C10.3946 8.98043 10.5 9.23478 10.5 9.5Z" fill="#9DA4AE"/>
</svg>
