<svg width="23" height="15" viewBox="0 0 23 15" fill="none" xmlns="http://www.w3.org/2000/svg">
<path d="M6.70801 0.820068C9.23648 0.820068 11.5776 2.31955 12.6064 4.56421L12.6475 4.65308H22.8467V10.0964H19.9717V12.9714H14.5283V10.0964H12.6475L12.6064 10.1863C11.5776 12.4309 9.23645 13.9304 6.70801 13.9304C3.05534 13.9302 0.15332 11.0275 0.15332 7.37476C0.153493 3.7222 3.05545 0.820241 6.70801 0.820068ZM6.70801 2.43042C3.94025 2.43059 1.76384 4.607 1.76367 7.37476C1.76367 10.1427 3.94015 12.3199 6.70801 12.3201C8.78342 12.3201 10.6643 11.0353 11.3574 9.05542L11.3604 9.04663L11.5195 8.48706H16.1387V11.3621H18.3613V8.48706H21.2363V6.26343H11.5195L11.3604 5.70386L11.3574 5.69507L11.2891 5.51147C10.5467 3.63591 8.71866 2.43042 6.70801 2.43042ZM6.70801 4.65308C8.25238 4.65308 9.42952 5.83043 9.42969 7.37476C9.42969 8.91924 8.25249 10.0964 6.70801 10.0964C5.16368 10.0963 3.98633 8.91913 3.98633 7.37476C3.98649 5.83054 5.16379 4.65324 6.70801 4.65308ZM6.70801 6.26343C6.3858 6.2635 6.10554 6.37175 5.90527 6.57202C5.70501 6.77229 5.59675 7.05255 5.59668 7.37476C5.59668 7.6971 5.70494 7.97813 5.90527 8.17847C6.10553 8.37863 6.38589 8.48699 6.70801 8.48706C7.03035 8.48706 7.31138 8.3788 7.51172 8.17847C7.71205 7.97813 7.82031 7.6971 7.82031 7.37476C7.82024 7.05264 7.71188 6.77228 7.51172 6.57202C7.31138 6.37169 7.03035 6.26343 6.70801 6.26343Z" fill="#949494" stroke="white" stroke-width="0.306667"/>
</svg>
