<svg id="Layer_1" enable-background="new 0 0 100 100" viewBox="0 0 100 100" xmlns="http://www.w3.org/2000/svg"><circle cx="50" cy="50" fill="#ee3624" r="47.5"/><path d="m72.4890976 60.3196411-10.3196755-10.3196754 10.3196297-10.3196297c1.5323715-1.5323715 1.5324173-4.016861.0000458-5.5492287l-6.6201553-6.6201611c-1.5324173-1.5324154-4.0169106-1.5323696-5.5492783 0l-10.3196335 10.3196317-10.3196754-10.3196774c-1.5323715-1.5323696-4.0169067-1.5323696-5.5492783 0l-6.6201591 6.6201611c-1.5324154 1.5324135-1.5323696 4.0169029 0 5.5492744l10.3196793 10.3196754-10.3196793 10.3196755c-1.5323696 1.5323715-1.5324154 4.016861 0 5.5492783l6.6201591 6.6201553c1.5323715 1.5323715 4.016861 1.5323257 5.5492325-.0000458l10.3196754-10.3196754 10.3196793 10.3196754c1.5323677 1.5323715 4.016861 1.5324173 5.5492783 0l6.6201553-6.6201553c1.5323715-1.5323715 1.5323715-4.0169068 0-5.5492783z" fill="#fff"/><path d="m97.5 50c0 26.2305298-21.2694702 47.4999924-47.5 47.4999924v-94.9999879c26.2305298 0 47.5 21.2694676 47.5 47.4999955z" opacity=".1"/></svg>