<svg id="Layer_1" enable-background="new 0 0 1024 1024" viewBox="0 0 1024 1024" xmlns="http://www.w3.org/2000/svg"><g id="XMLID_16_" fill="none" stroke-miterlimit="10" stroke-width="15"><path id="XMLID_76_" d="m626.216 709.724v-65.567h-65.567" stroke="#0098ff"/><path id="XMLID_89_" d="m586.888 839.242h-414.97c-12.18 0-22.05-9.87-22.05-22.05v-695.01c0-12.18 9.87-22.05 22.05-22.05h445.56c8.01 0 15.69 3.18 21.36 8.85l156.61 156.61c5.67 5.67 8.85 13.35 8.85 21.36v350.96" stroke="#0f3144"/><path id="XMLID_88_" d="m793.238 263.382h-130.139c-12.18 0-22.054-9.874-22.054-22.054v-130.139" stroke="#0f3144"/><g stroke="#0098ff"><path id="XMLID_85_" d="m490.428 724.922h-227.38v-92.69l75.7-75.02 75.51 75.02 187.55-186.66 79.31 78.42"/><circle id="XMLID_84_" cx="356.764" cy="372.499" r="49.403"/><path id="XMLID_83_" d="m747.223 916.665c-83.384 14.703-162.899-40.974-177.601-124.358-10.08-57.167 12.92-112.515 55.25-146.406"/><path id="XMLID_75_" d="m693.979 614.706c83.384-14.703 162.899 40.974 177.601 124.358 10.051 57.003-12.789 112.198-54.887 146.114"/><path id="XMLID_77_" d="m814.986 821.647v65.566h65.567"/></g></g></svg>