<svg width="18" height="18" viewBox="0 0 18 18" fill="none" xmlns="http://www.w3.org/2000/svg">
<path d="M14.7909 3.12305C11.9505 0.32435 7.58151 0.0106259 4.39551 2.1545L4.38659 0.923751C4.38509 0.716601 4.21589 0.549876 4.00866 0.551526L3.25874 0.557376C3.05166 0.558951 2.88516 0.728076 2.88666 0.935076L2.90736 3.74195C2.91029 4.1543 3.24576 4.4861 3.65736 4.4861C3.65886 4.4861 3.66104 4.4861 3.66321 4.4861L6.47046 4.4654C6.67761 4.4639 6.84426 4.29463 6.84269 4.08748L6.83684 3.3374C6.83526 3.13033 6.66614 2.96383 6.45914 2.96533L5.98199 2.96878C8.49284 1.71538 11.6299 2.11445 13.7377 4.1909C15.7606 6.185 16.3134 9.18275 15.1639 11.7532C15.082 11.9362 15.1491 12.1494 15.3276 12.2407L15.997 12.5827C16.1866 12.6796 16.4265 12.6016 16.5145 12.4077C17.9445 9.25745 17.2743 5.57113 14.7909 3.12305ZM14.3434 13.5139C14.3419 13.5139 14.3397 13.5139 14.3375 13.5139L11.5303 13.5345C11.3231 13.5361 11.1565 13.7053 11.158 13.9125L11.1639 14.6625C11.1655 14.8695 11.3346 15.036 11.5416 15.0346L12.0183 15.0312C9.50729 16.2843 6.37079 15.8848 4.26299 13.809C2.24009 11.8149 1.68734 8.81713 2.83686 6.24673C2.91869 6.06373 2.85164 5.8505 2.67314 5.75923L2.00376 5.41722C1.81409 5.32032 1.57424 5.3984 1.48619 5.59228C0.056086 8.74242 0.726361 12.4287 3.20969 14.8769C4.81439 16.4582 6.90771 17.2463 8.99946 17.2463C10.6101 17.2463 12.2191 16.7774 13.605 15.8446L13.6139 17.0761C13.6154 17.2833 13.7846 17.45 13.9918 17.4484L14.7418 17.4426C14.9488 17.4409 15.1153 17.2718 15.1138 17.0648L15.0931 14.258C15.0904 13.8456 14.755 13.5139 14.3434 13.5139Z" fill="#384250"/>
</svg>
